<?xml version="1.0" encoding="UTF-8" standalone="no"?>
<svg
   viewBox="0 0 256 256"
   fill="currentColor"
   version="1.1"
   id="svg1"
   sodipodi:docname="head-circuit-wave.svg"
   inkscape:export-filename="head-circuit-256.png"
   inkscape:export-xdpi="96"
   inkscape:export-ydpi="96"
   inkscape:version="1.4.4 (dcaf3e7, 2026-05-05)"
   xmlns:inkscape="http://www.inkscape.org/namespaces/inkscape"
   xmlns:sodipodi="http://sodipodi.sourceforge.net/DTD/sodipodi-0.dtd"
   xmlns="http://www.w3.org/2000/svg"
   xmlns:svg="http://www.w3.org/2000/svg">
  <defs
     id="defs1" />
  <sodipodi:namedview
     id="namedview1"
     pagecolor="#ffffff"
     bordercolor="#000000"
     borderopacity="0.25"
     inkscape:showpageshadow="2"
     inkscape:pageopacity="0.0"
     inkscape:pagecheckerboard="0"
     inkscape:deskcolor="#d1d1d1"
     inkscape:zoom="1.972165"
     inkscape:cx="137.41244"
     inkscape:cy="91.270253"
     inkscape:window-width="1648"
     inkscape:window-height="958"
     inkscape:window-x="0"
     inkscape:window-y="40"
     inkscape:window-maximized="1"
     inkscape:current-layer="svg1" />
  <path
     d="M188.25,169.77A84.3,84.3,0,0,0,220,102c-1-43.64-35.9-79.62-79.45-81.91A84,84,0,0,0,52,103L29.1,147c-.05.09-.09.18-.13.27a12,12,0,0,0,5.66,15.46l.13.06L60,174.38V208a12,12,0,0,0,12,12h48a4,4,0,0,0,0-8H72a4,4,0,0,1-4-4V171.81a4,4,0,0,0-2.34-3.64l-27.5-12.59a4,4,0,0,1-1.88-5l23.27-44.72A4.11,4.11,0,0,0,60,104a76,76,0,0,1,64-75V52.4a20,20,0,1,0,8,0V28.11a78.35,78.35,0,0,1,8.11,0c33.13,1.74,60.72,25,69.2,55.89H184a4,4,0,0,0-3.07,1.44l-27.46,33a20.12,20.12,0,1,0,6.13,5.13L185.87,92H211a75.9,75.9,0,0,1-29.44,72.8,4,4,0,0,0-1.57,3.7l8,64a4,4,0,0,0,4,3.5l.5,0A4,4,0,0,0,196,231.5ZM140,72a12,12,0,1,1-12-12A12,12,0,0,1,140,72Zm4,76a12,12,0,1,1,12-12A12,12,0,0,1,144,148Z"
     id="path1" />
  <path
     style="fill:#29527b;fill-opacity:1;stroke:#ffffff;stroke-width:0.717087;stroke-linecap:round;stroke-linejoin:round"
     d="m 190.15312,235.32053 c -0.42418,-0.20528 -1.03836,-0.88008 -1.36485,-1.49955 -0.85377,-1.61993 -8.83348,-65.61815 -8.35451,-67.00422 0.19111,-0.55305 1.61588,-2.02483 3.26363,-3.37133 8.88889,-7.2637 15.995,-16.26285 20.84753,-26.4012 4.58404,-9.5774 6.84647,-18.49172 7.52775,-29.66048 0.20783,-3.40715 -0.23297,-11.960162 -0.74377,-14.431369 l -0.2038,-0.985994 -12.78944,0.007 -12.78944,0.007 -12.54902,15.095143 c -6.90196,8.30232 -12.78311,15.47084 -13.06922,15.93004 -0.46038,0.73891 -0.45306,0.90913 0.0637,1.48053 1.07905,1.19314 2.83295,5.16809 3.34374,7.57807 0.64464,3.04154 0.63918,4.98731 -0.0228,8.12638 -2.21179,10.48815 -12.85836,17.60345 -23.12213,15.45295 -9.55062,-2.00108 -16.13446,-9.98936 -16.13446,-19.5762 0,-5.22972 1.78822,-9.57634 5.60372,-13.62097 2.67041,-2.83077 6.47815,-5.01071 10.0461,-5.75142 2.93847,-0.61002 8.0688,-0.28029 10.70312,0.6879 1.1832,0.43486 2.39948,0.87372 2.70285,0.97524 0.3887,0.13007 4.66133,-4.7483 14.46836,-16.51959 7.65423,-9.187296 14.09093,-17.036799 14.6524,-17.32714 0.84349,-0.43619 3.55142,-0.432822 14.23142,-0.432822 9.58061,0 12.92537,-0.107832 12.92537,-0.416706 0,-0.944669 -2.70686,-8.26458 -4.33793,-11.730651 -9.73798,-20.693547 -28.02155,-35.937512 -49.96174,-41.655697 -5.61682,-1.463889 -10.2339,-2.101727 -17.14482,-2.368511 l -6.01031,-0.232018 0.0943,12.445544 0.0944,12.445545 2.33053,0.790226 c 6.11615,2.073835 11.07078,7.469652 12.7366,13.870728 0.87022,3.34388 0.57861,8.31597 -0.68084,11.608711 -1.75084,4.577444 -5.38324,8.682627 -9.56127,10.805706 -5.36167,2.724557 -12.47122,2.760691 -17.72179,0.09007 -9.86438,-5.017353 -13.81379,-17.296486 -8.67529,-26.972404 2.29981,-4.330573 6.81942,-8.138648 11.30702,-9.526891 l 2.01854,-0.62444 0.0945,-11.904789 0.0945,-11.904789 -1.52868,0.25121 c -0.84078,0.138165 -3.30348,0.697854 -5.47266,1.243752 -26.727469,6.726242 -48.061179,28.051095 -54.848095,54.825321 -1.238,4.883881 -1.948172,9.61878 -2.302938,15.354275 l -0.305507,4.93913 -11.895171,22.76751 c -11.247537,21.52793 -11.886548,22.85277 -11.736788,24.33352 0.104111,1.0294 0.448276,1.84441 1.004391,2.37849 0.465305,0.44687 7.138446,3.67009 14.829202,7.16271 9.725889,4.41685 14.283387,6.66908 14.969187,7.39748 l 0.985995,1.04724 v 19.19422 c 0,16.32767 0.08001,19.34895 0.535768,20.23028 1.175925,2.27399 -0.321302,2.15522 27.16966,2.15522 27.018226,0 26.324816,-0.0469 27.667766,1.87045 0.79172,1.13034 0.7066,3.22409 -0.17674,4.34708 -0.40498,0.51484 -1.33271,1.11104 -2.06163,1.32488 -0.91288,0.26781 -9.07978,0.35417 -26.244068,0.27754 -24.637408,-0.11001 -24.940244,-0.12007 -26.821019,-0.8911 -2.741111,-1.12373 -4.777378,-2.95127 -6.188637,-5.55425 l -1.23124,-2.27096 -0.101758,-18.47588 -0.101757,-18.47589 -12.447262,-5.67876 c -6.845995,-3.12331 -13.282139,-6.21785 -14.302544,-6.87674 -2.009354,-1.29748 -3.78347,-3.57764 -4.613015,-5.92882 -0.629014,-1.78282 -0.683029,-5.48212 -0.10463,-7.16587 0.230268,-0.67032 5.63531,-11.24211 12.011205,-23.49287 l 11.592534,-22.27411 v -2.38988 c 0,-9.500999 3.241752,-22.396759 8.222321,-32.708561 10.893769,-22.554533 30.733471,-38.766269 54.99344,-44.937121 22.34269,-5.683165 46.06643,-1.819022 65.48107,10.665611 9.62504,6.189405 18.48741,14.952045 24.92131,24.640859 2.90422,4.373466 6.82647,12.034086 8.60171,16.800165 1.60603,4.31181 3.49556,11.601145 4.38156,16.902916 1.01178,6.054464 0.91397,19.164821 -0.18948,25.396741 -3.57247,20.17621 -13.25896,37.4358 -28.37207,50.55396 l -2.32989,2.02233 3.93397,31.28887 c 3.55306,28.25941 3.88658,31.40324 3.44465,32.47016 -0.79049,1.90841 -3.29612,2.76279 -5.28281,1.80135 z m -41.18983,-88.26634 c 3.78558,-1.7331 6.23196,-4.90177 6.97709,-9.03706 0.96279,-5.34332 -1.81041,-10.66632 -6.78632,-13.02596 -1.67116,-0.79249 -2.46425,-0.93515 -5.19888,-0.93515 -2.80853,0 -3.49197,0.13018 -5.27152,1.00405 -4.07638,2.00178 -6.73968,6.2602 -6.73968,10.77626 0,5.82277 3.41453,10.3891 8.93825,11.95333 2.26426,0.6412 5.77116,0.32203 8.08106,-0.73547 z M 133.47452,82.879792 c 2.39581,-1.172157 4.31602,-3.208203 5.59186,-5.9292 1.25787,-2.682658 1.32612,-7.200362 0.14807,-9.801588 -2.88602,-6.372567 -10.55622,-9.083199 -16.83262,-5.948611 -2.02121,1.009439 -4.61449,3.769399 -5.56875,5.926669 -2.73991,6.194013 0.60569,14.028448 6.95789,16.293381 2.79851,0.997834 7.04229,0.761385 9.70355,-0.540651 z"
     id="path2"
     sodipodi:nodetypes="ssscssscccsssssssssssssssssscccssssssscccsssscssssscssssssssscccssssscssssssssscsssssssssssssssssss" />
</svg>
